HIERARCHY
ROOT Hips
{
	OFFSET 0.000000 0.000000 0.000000
	CHANNELS 6 Xposition Yposition Zposition Zrotation Yrotation Xrotation 
	JOINT LowerBack
	{
		OFFSET 0.000000 0.000000 0.000000
		CHANNELS 3 Zrotation Yrotation Xrotation
		JOINT Spine
		{
			OFFSET 0.028270 2.035590 -0.193380
			CHANNELS 3 Zrotation Yrotation Xrotation
			JOINT Spine1
			{
				OFFSET 0.056720 2.048850 -0.042750
				CHANNELS 3 Zrotation Yrotation Xrotation
				JOINT Neck
				{
					OFFSET 0.000000 0.000000 0.000000
					CHANNELS 3 Zrotation Yrotation Xrotation
					JOINT Neck1
					{
						OFFSET -0.054170 1.746240 0.172020
						CHANNELS 3 Zrotation Yrotation Xrotation
						JOINT Head
						{
							OFFSET 0.104070 1.761360 -0.123970
							CHANNELS 3 Zrotation Yrotation Xrotation
							End Site
							{
								OFFSET 0.000000 0.000000 0.000000
							}
						}
					}
				}
				JOINT LeftShoulder
				{
					OFFSET 0.000000 0.000000 0.000000
					CHANNELS 3 Zrotation Yrotation Xrotation
					JOINT LeftArm
					{
						OFFSET 3.362410 1.200890 -0.311210
						CHANNELS 3 Zrotation Yrotation Xrotation
						JOINT LeftForeArm
						{
							OFFSET 4.983000 -0.000000 -0.000000
							CHANNELS 3 Zrotation Yrotation Xrotation
							JOINT LeftHand
							{
								OFFSET 3.483560 -0.000000 -0.000000
								CHANNELS 3 Zrotation Yrotation Xrotation
								JOINT LeftFingerBase
								{
									OFFSET 0.000000 0.000000 0.000000
									CHANNELS 3 Zrotation Yrotation Xrotation
									JOINT LeftHandIndex1
									{
										OFFSET 0.715260 -0.000000 -0.000000
										CHANNELS 3 Zrotation Yrotation Xrotation
										End Site
										{
											OFFSET 0.000000 0.000000 0.000000
										}
									}
								}
								JOINT LThumb
								{
									OFFSET 0.000000 0.000000 0.000000
									CHANNELS 3 Zrotation Yrotation Xrotation
									End Site
									{
										OFFSET 0.000000 0.000000 0.000000
									}
								}
							}
						}
					}
				}
				JOINT RightShoulder
				{
					OFFSET 0.000000 0.000000 0.000000
					CHANNELS 3 Zrotation Yrotation Xrotation
					JOINT RightArm
					{
						OFFSET -3.136600 1.374050 -0.404650
						CHANNELS 3 Zrotation Yrotation Xrotation
						JOINT RightForeArm
						{
							OFFSET -5.241900 -0.000000 -0.000000
							CHANNELS 3 Zrotation Yrotation Xrotation
							JOINT RightHand
							{
								OFFSET -3.444170 -0.000000 -0.000000
								CHANNELS 3 Zrotation Yrotation Xrotation
								JOINT RightFingerBase
								{
									OFFSET 0.000000 0.000000 0.000000
									CHANNELS 3 Zrotation Yrotation Xrotation
									JOINT RightHandIndex1
									{
										OFFSET -0.622530 -0.000000 -0.000000
										CHANNELS 3 Zrotation Yrotation Xrotation
										End Site
										{
											OFFSET 0.000000 0.000000 0.000000
										}
									}
								}
								JOINT RThumb
								{
									OFFSET 0.000000 0.000000 0.000000
									CHANNELS 3 Zrotation Yrotation Xrotation
									End Site
									{
										OFFSET 0.000000 0.000000 0.000000
									}
								}
							}
						}
					}
				}
			}
		}
	}
}
}
MOTION
Frames: 7
Frame Time: 0.008333
1.845096 16.992970 0.249043 168.461076 -77.592165 -153.432082 -3.648529 -2.118494 -8.382445 -1.144757 -1.983486 -4.086906 -6.591148 -1.807264 -0.072225 11.311319 -12.242811 -5.594942 -4.191295 -0.341060 0.519591 0.000000 0.000000 0.000000 17.240057 2.618421 -2.675330 -81.636328 -10.010519 5.303380 179.129527 -39.252501 179.735551 13.536312 -51.163317 -7.065884 -0.159782 2.913198 -0.000000 0.000000 0.000000 0.000000 0.000000 0.000000 0.000000 4.383226 -10.666302 -2.537828 88.691827 23.637105 34.526328 -179.316865 52.226267 179.733433 -34.814403 47.000531 -16.665239 0.762315 -2.246749 -0.000000 0.000000 0.000000 0.000000 0.000000 0.000000 0.000000 
1.847694 16.978148 0.242678 169.296907 -76.492536 -154.245486 -3.529444 -2.015105 -8.554765 -1.178120 -1.899051 -4.123644 -6.766332 -1.713636 -0.121641 11.289864 -12.188733 -5.411777 -4.194733 -0.342983 0.568121 0.000000 0.000000 0.000000 17.144053 2.400633 -2.814148 -80.036961 -11.737385 4.063231 179.388089 -39.448788 179.744008 13.543208 -51.425736 -7.112466 -0.167846 2.914201 -0.000000 0.000000 0.000000 0.000000 0.000000 0.000000 0.000000 4.396918 -10.782953 -2.438603 88.789475 23.498128 34.930312 -179.227388 52.307381 179.729905 -35.025194 46.782966 -16.685904 0.768006 -2.239956 -0.000000 0.000000 0.000000 0.000000 0.000000 0.000000 0.000000 
1.849060 16.967151 0.238477 170.110792 -75.362027 -155.032431 -3.377371 -1.899451 -8.739239 -1.211547 -1.807714 -4.161920 -6.962164 -1.612734 -0.166081 11.287283 -12.135384 -5.212834 -4.189536 -0.344428 0.621646 0.000000 0.000000 0.000000 17.026392 2.180523 -2.954797 -78.231073 -13.663997 2.673907 179.647835 -39.741333 179.752951 13.657624 -51.656714 -7.211057 -0.179784 2.908686 -0.000000 0.000000 0.000000 0.000000 0.000000 0.000000 0.000000 4.423435 -10.905309 -2.335220 88.813269 23.369884 35.311394 -179.138739 52.387832 179.726350 -35.210852 46.544048 -16.684710 0.773213 -2.232106 -0.000000 0.000000 0.000000 0.000000 0.000000 0.000000 0.000000 
1.849372 16.960304 0.236517 170.893954 -74.204865 -155.789024 -3.199415 -1.779300 -8.926151 -1.245301 -1.716565 -4.200536 -7.176604 -1.511926 -0.208441 11.313261 -12.080475 -5.000180 -4.174970 -0.345318 0.679567 0.000000 0.000000 0.000000 16.890422 1.949222 -3.087971 -76.212226 -15.758854 1.112450 179.892667 -40.137681 179.761871 13.913446 -51.854910 -7.379943 -0.195836 2.895253 -0.000000 0.000000 0.000000 0.000000 0.000000 0.000000 0.000000 4.475437 -11.025981 -2.229269 88.761808 23.265134 35.666534 -179.055052 52.471328 179.722887 -35.367306 46.291930 -16.663159 0.777744 -2.223331 -0.000000 0.000000 0.000000 0.000000 0.000000 0.000000 0.000000 
1.848795 16.957780 0.236830 171.642949 -73.024685 -156.515503 -3.003081 -1.663486 -9.106412 -1.279237 -1.633529 -4.238439 -7.405422 -1.419488 -0.251680 11.376277 -12.022822 -4.778163 -4.150479 -0.345576 0.740663 0.000000 0.000000 0.000000 16.741987 1.697348 -3.203907 -73.973962 -17.974070 -0.645018 -179.895594 -40.644906 179.770140 14.349676 -52.020101 -7.640014 -0.216167 2.872561 -0.000000 0.000000 0.000000 0.000000 0.000000 0.000000 0.000000 4.564365 -11.138377 -2.122741 88.636166 23.196338 35.995555 -178.980576 52.562692 179.719656 -35.494991 46.037233 -16.625651 0.781492 -2.213791 -0.000000 0.000000 0.000000 0.000000 0.000000 0.000000 0.000000 
1.847356 16.959657 0.239391 172.360784 -71.826509 -157.215573 -2.796228 -1.561066 -9.272432 -1.312570 -1.566468 -4.275121 -7.641181 -1.343807 -0.299692 11.484342 -11.962290 -4.552804 -4.115559 -0.345124 0.803300 0.000000 0.000000 0.000000 16.597083 1.414333 -3.294726 -71.525643 -20.237819 -2.621679 -179.737076 -41.274784 179.777045 14.988685 -52.141678 -8.001256 -0.240171 2.838912 -0.000000 0.000000 0.000000 0.000000 0.000000 0.000000 0.000000 4.698109 -11.236424 -2.017411 88.437334 23.171747 36.297727 -178.918627 52.662336 179.716759 -35.597703 45.789737 -16.577882 0.784480 -2.203763 -0.000000 0.000000 0.000000 0.000000 0.000000 0.000000 0.000000 
1.845344 16.965740 0.244076 173.037104 -70.614555 -157.882528 -2.582705 -1.480681 -9.418431 -1.344513 -1.523107 -4.308907 -7.879549 -1.292637 -0.350691 11.637731 -11.900254 -4.331441 -4.071058 -0.343956 0.865323 0.000000 0.000000 0.000000 16.445218 1.103044 -3.351984 -68.820850 -22.511958 -4.826767 -179.641448 -42.022008 179.782011 15.913896 -52.237566 -8.511555 -0.269302 2.795100 -0.000000 0.000000 0.000000 0.000000 0.000000 0.000000 0.000000 4.884810 -11.322991 -1.917616 88.176461 23.210383 36.582299 -178.874329 52.780306 179.714440 -35.680931 45.562463 -16.527849 0.786782 -2.193348 -0.000000 0.000000 0.000000 0.000000 0.000000 0.000000 0.000000 
